#!OML:ASF F:\VICON\USERDATA\INSTALL\Justin_Nancy\Justin_Nancy.ASF
:FULLY-SPECIFIED
:DEGREES
33
root 10.2646 16.0821 -11.4645 0.873321 -25.6995 9.10647
lowerback 11.5484 1.26128 -4.5821
upperback 0.828595 1.07336 0.061452
thorax -5.69966 0.637604 2.47499
lowerneck -16.5605 -3.60911 -10.6142
upperneck 14.266 -3.96322 9.07188
head 7.5047 -1.64914 4.29639
rclavicle -1.51076e-014 1.59028e-014
rhumerus -50.8458 10.4422 -101.169
rradius 109.916
rwrist -2.84252
rhand -17.0034 28.2111
rfingers 7.12502
rthumb 9.23208 -1.56681
lclavicle -1.51076e-014 1.59028e-014
lhumerus -51.0643 -16.8816 101.945
lradius 111.435
lwrist 42.4977
lhand -12.794 8.6766
lfingers 7.12502
lthumb 13.2918 38.2327
rfemur -19.4158 -1.31317 11.7886
rtibia 98.4154
rfoot -11.831 -6.08099
rtoes 8.51618
lfemur -16.908 -1.40227 -11.0036
ltibia 40.348
lfoot -23.5007 -2.89876
ltoes -27.4974
34
root 10.1835 16.0693 -10.9937 1.16297 -26.1103 8.83416
lowerback 11.7581 0.59658 -3.89653
upperback 0.996888 0.276007 0.111026
thorax -5.5721 0.224249 2.27126
lowerneck -16.8149 -3.28913 -10.6413
upperneck 14.1537 -3.50783 9.19596
head 7.46613 -1.41575 4.39499
rclavicle -1.31198e-014 -1.19271e-014
rhumerus -52.172 10.2557 -101.176
rradius 110.574
rwrist -5.43637
rhand -18.0592 30.017
rfingers 7.12502
rthumb 8.21319 0.196649
lclavicle -1.31198e-014 -1.19271e-014
lhumerus -47.7949 -18.3735 100.557
lradius 111.514
lwrist 40.7039
lhand -11.3349 8.85697
lfingers 7.12502
lthumb 14.6978 38.316
rfemur -23.5773 -3.73183 12.5962
rtibia 100.097
rfoot -11.5893 -4.69679
rtoes 9.12727
lfemur -15.1588 -1.57712 -11.315
ltibia 40.228
lfoot -24.9626 -1.85043
ltoes -29.434
35
root 10.0753 16.1246 -10.5074 1.33663 -26.4023 9.31037
lowerback 11.7768 -0.0552923 -3.96932
upperback 1.07184 -0.602228 0.0370006
thorax -5.44251 -0.210286 2.37728
lowerneck -17.0405 -2.94625 -10.6493
upperneck 14.0617 -3.00906 9.20484
head 7.4215 -1.17165 4.45647
rclavicle -2.16675e-014 -2.62396e-014
rhumerus -53.4417 10.3217 -101.121
rradius 111.74
rwrist -8.26352
rhand -17.503 28.7668
rfingers 7.12502
rthumb 8.74996 -1.03185
lclavicle -2.16675e-014 -2.62396e-014
lhumerus -44.2555 -19.0721 98.6865
lradius 111.42
lwrist 38.6042
lhand -8.976 8.6631
lfingers 7.12502
lthumb 16.9695 37.9418
rfemur -27.6854 -6.34609 13.0724
rtibia 100.794
rfoot -12.2856 -3.05732
rtoes 4.78568
lfemur -13.01 -4.48017 -12.744
ltibia 39.4583
lfoot -25.3423 1.89951
ltoes -29.7861
36
root 9.99133 16.0763 -10.0484 1.47054 -26.9611 9.75391
lowerback 12.0667 -0.576244 -4.37456
upperback 0.84925 -1.3569 0.176499
thorax -5.7739 -0.557673 2.88326
lowerneck -16.9149 -2.58054 -10.5827
upperneck 14.1841 -2.4625 8.75292
head 7.37399 -0.951914 4.35681
rclavicle 8.60738e-014 1.11319e-014
rhumerus -55.2664 10.6146 -100.723
rradius 113.048
rwrist -10.3421
rhand -16.9517 28.4324
rfingers 7.12502
rthumb 9.28197 -1.34331
lclavicle 8.60738e-014 1.11319e-014
lhumerus -41.4596 -17.9334 96.6271
lradius 111.54
lwrist 33.9759
lhand -0.698315 9.45502
lfingers 7.12502
lthumb 24.9213 37.8502
rfemur -32.3283 -8.36625 14.1071
rtibia 101.565
rfoot -13.7617 -1.48442
rtoes -2.71568
lfemur -11.3343 -3.17485 -13.6284
ltibia 38.981
lfoot -25.7811 1.09903
ltoes -30.9671
37
root 9.88441 16.0871 -9.54355 0.440258 -27.5775 12.4879
lowerback 12.1665 -1.18348 -6.83146
upperback 0.445471 -2.53002 0.00460045
thorax -6.06921 -1.05054 4.28995
lowerneck -16.5454 -2.03208 -10.8295
upperneck 14.5629 -1.57553 8.02319
head 7.33769 -0.620357 4.2557
rclavicle -4.21423e-014 1.11319e-014
rhumerus -57.7791 11.9023 -100.148
rradius 114.46
rwrist -11.7043
rhand -16.2814 28.8228
rfingers 7.12502
rthumb 9.92872 -0.923035
lclavicle -4.21423e-014 1.11319e-014
lhumerus -40.1566 -16.1392 95.816
lradius 112.629
lwrist 33.0618
lhand -1.26056 8.40615
lfingers 7.12502
lthumb 24.3824 36.8749
rfemur -36.0612 -10.1689 12.7492
rtibia 101.402
rfoot -13.8385 0.508293
rtoes -1.37914
lfemur -8.85696 -3.80361 -17.3301
ltibia 38.0386
lfoot -25.6 2.38726
ltoes -33.3162
38
root 9.74568 16.1032 -9.05215 0.786623 -29.0431 11.763
lowerback 12.3142 -1.86939 -6.84265
upperback 0.181595 -3.40236 0.897432
thorax -6.27066 -1.44843 5.40204
lowerneck -16.3095 -1.27983 -11.5496
upperneck 14.8538 -0.323391 7.55152
head 7.26651 -0.115092 4.35472
rclavicle -3.12092e-014 -1.59028e-015
rhumerus -60.0327 14.0621 -99.5964
rradius 115.695
rwrist -12.256
rhand -15.8169 28.7783
rfingers 7.12502
rthumb 10.3768 -0.945616
lclavicle -3.12092e-014 -1.59028e-015
lhumerus -39.1181 -14.0284 95.3713
lradius 114.361
lwrist 36.9441
lhand -8.14392 7.30025
lfingers 7.12502
lthumb 17.7704 36.5083
rfemur -39.7354 -9.8803 16.1054
rtibia 100.288
rfoot -13.7033 0.989302
rtoes -1.81631
lfemur -6.45261 -3.30332 -17.2918
ltibia 37.5147
lfoot -24.4743 2.95143
ltoes -41.6399
39
root 9.60485 16.1333 -8.55882 0.508201 -30.1918 12.6124
lowerback 12.2441 -2.07173 -7.51618
upperback 0.351195 -3.76782 0.706861
thorax -5.97017 -1.63005 5.62454
lowerneck -17.0942 -1.14607 -11.3687
upperneck 15.023 -0.0834097 7.47403
head 7.43244 0.0121969 4.33587
rclavicle 3.22031e-014 7.15625e-015
rhumerus -61.1379 14.2163 -99.0052
rradius 117.041
rwrist -12.1421
rhand -16.1705 29.2471
rfingers 7.12502
rthumb 10.0357 -0.493571
lclavicle 3.22031e-014 7.15625e-015
lhumerus -37.0273 -13.6994 93.981
lradius 115.97
lwrist 41.625
lhand -10.9735 7.41634
lfingers 7.12502
lthumb 15.046 36.8496
rfemur -43.1342 -10.0243 17.7511
rtibia 98.5425
rfoot -14.1713 2.01406
rtoes -3.81666
lfemur -4.12364 -3.07789 -18.8648
ltibia 36.7119
lfoot -22.4398 2.09604
ltoes -42.1228
40
root 9.45165 16.1785 -8.05261 0.246867 -31.6486 13.3632
lowerback 12.0395 -1.61039 -7.46988
upperback 1.09429 -3.1622 -0.214818
thorax -5.20901 -1.403 4.49058
lowerneck -18.8287 -1.69375 -10.1805
upperneck 14.8264 -1.008 7.79488
head 7.75518 -0.295987 4.15608
rclavicle -7.65321e-014 1.66979e-014
rhumerus -60.952 12.3697 -98.3882
rradius 118.261
rwrist -11.6558
rhand -16.291 29.7756
rfingers 7.12502
rthumb 9.91941 0.0292912
lclavicle -7.65321e-014 1.66979e-014
lhumerus -33.6088 -15.1288 91.4557
lradius 117.083
lwrist 44.9494
lhand -18.5725 2.29974
lfingers 7.12502
lthumb 7.71781 32.1389
rfemur -46.0654 -9.4584 19.5873
rtibia 96.0405
rfoot -14.3269 2.45273
rtoes -5.21558
lfemur -1.84437 -2.61452 -20.3393
ltibia 35.9727
lfoot -13.6413 12.8971
ltoes -32.2748
41
root 9.29068 16.2421 -7.54203 0.426303 -33.5236 13.8059
lowerback 11.6517 -2.09701 -8.14092
upperback 0.595957 -3.86695 0.0586784
thorax -5.36874 -1.70876 5.25362
lowerneck -20.0887 -1.06971 -9.05659
upperneck 16.4879 -0.0953081 6.22885
head 8.44032 0.0385809 3.591
rclavicle -8.56762e-014 -1.82882e-014
rhumerus -63.3068 14.3249 -98.0922
rradius 119.227
rwrist -11.2347
rhand -15.9215 30.0396
rfingers 7.12502
rthumb 10.2759 0.310667
lclavicle -8.56762e-014 -1.82882e-014
lhumerus -33.3072 -12.2558 90.072
lradius 118.738
lwrist 48.1325
lhand -9.08063 8.57788
lfingers 7.12502
lthumb 16.8688 37.8652
rfemur -48.9204 -8.1215 21.8093
rtibia 92.8344
rfoot -14.1257 2.16443
rtoes -9.55654
lfemur 0.52171 -0.993837 -21.5107
ltibia 35.0056
lfoot -16.8798 8.75006
ltoes -53.5901
42
root 9.11975 16.3107 -7.01653 0.480944 -35.6534 14.1472
lowerback 11.2473 -1.34137 -7.74023
upperback 0.689842 -2.80878 -0.525288
thorax -5.24594 -1.21444 4.23661
lowerneck -22.4022 -1.75055 -7.72281
upperneck 17.3179 -1.26685 6.20063
head 9.21883 -0.404898 3.24081
rclavicle 1.13108e-013 -1.19271e-014
rhumerus -63.7879 12.0882 -97.187
rradius 119.83
rwrist -10.3224
rhand -15.7807 30.0588
rfingers 7.12502
rthumb 10.4117 0.336561
lclavicle 1.13108e-013 -1.19271e-014
lhumerus -31.8062 -13.7728 88.7615
lradius 119.83
lwrist 50.122
lhand -8.90236 10.179
lfingers 7.12502
lthumb 17.0404 39.4517
rfemur -50.9388 -6.39826 23.9212
rtibia 89.0188
rfoot -14.5417 3.41928
rtoes -12.8402
lfemur 2.67429 -0.0975188 -22.5326
ltibia 33.6225
lfoot -16.0397 3.68581
ltoes -48.8007
43
root 8.94814 16.3722 -6.47973 0.0291395 -37.681 14.87
lowerback 9.21495 -2.02788 -7.25547
upperback 1.2646 -3.49058 -1.24692
thorax -3.49236 -1.65517 3.18251
lowerneck -20.6177 -0.9864 -8.3026
upperneck 15.4693 -0.448192 7.79974
head 8.21738 0.105316 3.94767
rclavicle 1.44516e-013 1.19271e-014
rhumerus -63.7316 13.2725 -98.023
rradius 119.616
rwrist -9.28891
rhand -15.5673 29.8542
rfingers 7.12502
rthumb 10.6175 0.142479
lclavicle 1.44516e-013 1.19271e-014
lhumerus -30.7832 -11.4243 85.7694
lradius 121.16
lwrist 52.3791
lhand -8.26257 11.5241
lfingers 7.12502
lthumb 17.6562 40.7424
rfemur -52.0901 -4.88424 25.4459
rtibia 84.8161
rfoot -15.4063 0.95434
rtoes -19.9941
lfemur 4.91228 0.385339 -23.8764
ltibia 31.9445
lfoot -12.2973 1.29645
ltoes -38.6322
